<?xml version="1.0" encoding="UTF-8"?>
<svg version="1.1" xmlns="http://www.w3.org/2000/svg" width="180" height="180">
<path d="M0 0 C59.4 0 118.8 0 180 0 C180 59.4 180 118.8 180 180 C120.6 180 61.2 180 0 180 C0 120.6 0 61.2 0 0 Z " fill="#F8FBFC" transform="translate(0,0)"/>
<path d="M0 0 C6.88221592 3.1949698 9.23947806 9.22137738 12.5625 15.75 C13.66559053 17.87103021 14.77101636 19.99084771 15.87890625 22.109375 C16.40315186 23.11959717 16.92739746 24.12981934 17.4675293 25.1706543 C19.176004 28.32494988 21.05186307 31.31315106 23.07763672 34.27172852 C24.88454904 37.65741733 24.55531844 40.23617501 24 44 C22.20636089 46.8100346 20.98119065 48.50940468 18 50 C16.66891009 50.11372327 15.33255609 50.16922953 13.99682617 50.19287109 C13.17224411 50.20893402 12.34766205 50.22499695 11.49809265 50.24154663 C7.72521801 50.28602528 3.95251891 50.32706263 0.17944336 50.35009766 C-1.80993347 50.36665551 -3.79925085 50.39394328 -5.78833008 50.43212891 C-8.65737755 50.48692264 -11.52503087 50.50877517 -14.39453125 50.5234375 C-15.28114944 50.54610687 -16.16776764 50.56877625 -17.08125305 50.59213257 C-21.52979696 50.57693122 -23.40195606 50.46130961 -27.02832031 47.6640625 C-29.64026885 44.13489182 -30.17485335 42.42065131 -30 38 C-28.54677345 34.24488084 -26.59238906 30.84540746 -24.5625 27.375 C-24.01207031 26.40457764 -23.46164063 25.43415527 -22.89453125 24.43432617 C-21.28344451 21.61045437 -19.64600079 18.80362771 -18 16 C-17.57315918 15.26120605 -17.14631836 14.52241211 -16.70654297 13.76123047 C-8.0885471 -1.13239659 -8.0885471 -1.13239659 0 0 Z " fill="#2185C4" transform="translate(55,96)"/>
<path d="M0 0 C1.010625 0.66 2.02125 1.32 3.0625 2 C3.0625 3.32 3.0625 4.64 3.0625 6 C1.71264456 7.14218537 0.35297688 8.27400275 -1.04296875 9.359375 C-12.10097475 18.9353802 -19.64793853 33.43379953 -26.421875 46.18359375 C-28.32507795 49.72021573 -30.31444594 53.20382574 -32.3125 56.6875 C-32.67102051 57.31285645 -33.02954102 57.93821289 -33.39892578 58.58251953 C-34.24423779 60.05551803 -35.09073667 61.52783532 -35.9375 63 C-43.66495045 61.6708264 -48.47935366 57.2072126 -52.9375 51 C-56.1045954 45.40479813 -56.82646214 40.30175383 -55.9375 34 C-53.3692405 26.07429595 -47.84884772 21.16407437 -40.875 16.9375 C-38.45936526 15.76864448 -36.58263607 15.58669749 -33.9375 16 C-33.875625 14.989375 -33.81375 13.97875 -33.75 12.9375 C-32.96073686 7.66863526 -30.39644972 4.06430347 -26.35546875 0.671875 C-18.94862425 -3.91100918 -7.67868348 -3.83249799 0 0 Z " fill="#68B7E1" transform="translate(68.9375,54)"/>
<path d="M0 0 C0.47308594 0.39058594 0.94617188 0.78117187 1.43359375 1.18359375 C1.43359375 1.84359375 1.43359375 2.50359375 1.43359375 3.18359375 C0.22960937 3.53292969 -0.974375 3.88226563 -2.21484375 4.2421875 C-3.79039375 4.70172292 -5.365913 5.16136381 -6.94140625 5.62109375 C-7.73546875 5.85119141 -8.52953125 6.08128906 -9.34765625 6.31835938 C-10.48847656 6.6519043 -10.48847656 6.6519043 -11.65234375 6.9921875 C-12.35407715 7.19642334 -13.05581055 7.40065918 -13.77880859 7.61108398 C-15.64151383 8.15735696 -15.64151383 8.15735696 -17.56640625 9.18359375 C-16.88578125 9.74046875 -16.20515625 10.29734375 -15.50390625 10.87109375 C-13.56640625 13.18359375 -13.56640625 13.18359375 -13.50390625 15.74609375 C-14.90275801 18.95522425 -16.41788888 19.75926446 -19.56640625 21.18359375 C-20.55640625 21.18359375 -21.54640625 21.18359375 -22.56640625 21.18359375 C-23.22640625 19.20359375 -23.88640625 17.22359375 -24.56640625 15.18359375 C-23.57640625 14.52359375 -22.58640625 13.86359375 -21.56640625 13.18359375 C-21.07140625 11.69859375 -21.07140625 11.69859375 -20.56640625 10.18359375 C-22.2963065 11.11973942 -24.02529321 12.05757333 -25.75390625 12.99609375 C-26.71683594 13.51816406 -27.67976563 14.04023437 -28.671875 14.578125 C-31.34038982 16.05823241 -33.96014852 17.59696884 -36.56640625 19.18359375 C-37.95859375 18.22453125 -37.95859375 18.22453125 -39.37890625 17.24609375 C-43.6255073 14.49829307 -46.79269409 13.99451832 -51.75390625 13.62109375 C-52.84058594 13.53730469 -53.92726562 13.45351563 -55.046875 13.3671875 C-56.29404297 13.27630859 -56.29404297 13.27630859 -57.56640625 13.18359375 C-57.56640625 12.85359375 -57.56640625 12.52359375 -57.56640625 12.18359375 C-55.25640625 12.18359375 -52.94640625 12.18359375 -50.56640625 12.18359375 C-50.31246094 11.44238281 -50.05851562 10.70117188 -49.796875 9.9375 C-46.20675504 1.90246962 -38.23804661 -3.0196215 -30.31640625 -6.06640625 C-18.79771428 -8.37014464 -9.8141273 -6.14100363 0 0 Z " fill="#B4DAEF" transform="translate(109.56640625,38.81640625)"/>
<path d="M0 0 C0.53625 0.2475 1.0725 0.495 1.625 0.75 C1.13 1.6575 0.635 2.565 0.125 3.5 C-2.4433287 9.6121284 -2.54498434 16.35611686 -0.390625 22.60546875 C1.38077814 26.30682655 3.04929422 29.18944437 6 32.0625 C7.625 33.75 7.625 33.75 7.625 36.0625 C6.31993626 39.56985879 4.56941892 42.55111726 2.625 45.75 C-4.28923786 44.93656025 -8.82887366 40.82403971 -13.05078125 35.59375 C-17.29899045 29.67883926 -18.37621643 23.84751205 -17.375 16.75 C-15.16616575 9.93349001 -8.00554393 -0.84268883 0 0 Z " fill="#31A2DE" transform="translate(30.375,71.25)"/>
<path d="M0 0 C1.65 0 3.3 0 5 0 C5.33773437 0.68707031 5.67546875 1.37414062 6.0234375 2.08203125 C6.69246094 3.43361328 6.69246094 3.43361328 7.375 4.8125 C8.03628906 6.15248047 8.03628906 6.15248047 8.7109375 7.51953125 C10.01866905 10.14556381 10.01866905 10.14556381 12 13 C12.34933594 12.14535156 12.69867188 11.29070312 13.05859375 10.41015625 C13.51363281 9.30542969 13.96867188 8.20070313 14.4375 7.0625 C14.88996094 5.96035156 15.34242188 4.85820313 15.80859375 3.72265625 C17 1 17 1 18 0 C19.65 0 21.3 0 23 0 C23 7.92 23 15.84 23 24 C21.68 24 20.36 24 19 24 C18.67 19.38 18.34 14.76 18 10 C16.35 13.3 14.7 16.6 13 20 C9 19 9 19 7.734375 16.93359375 C6.82291667 14.62239583 5.91145833 12.31119792 5 10 C4.67 14.62 4.34 19.24 4 24 C2.68 24 1.36 24 0 24 C0 16.08 0 8.16 0 0 Z " fill="#263A4F" transform="translate(141,118)"/>
<path d="M0 0 C1.2065625 0.0309375 1.2065625 0.0309375 2.4375 0.0625 C3.78216186 3.30792723 5.1112175 6.55952334 6.4375 9.8125 C6.8190625 10.73289063 7.200625 11.65328125 7.59375 12.6015625 C7.9546875 13.49101562 8.315625 14.38046875 8.6875 15.296875 C9.02265625 16.11381836 9.3578125 16.93076172 9.703125 17.77246094 C10.4375 20.0625 10.4375 20.0625 10.4375 24.0625 C9.1175 24.0625 7.7975 24.0625 6.4375 24.0625 C5.7775 22.4125 5.1175 20.7625 4.4375 19.0625 C1.1375 19.0625 -2.1625 19.0625 -5.5625 19.0625 C-6.5525 21.5375 -6.5525 21.5375 -7.5625 24.0625 C-8.8825 24.0625 -10.2025 24.0625 -11.5625 24.0625 C-10.82696805 19.03636497 -8.91800611 14.50715402 -7.0625 9.8125 C-6.58103516 8.57113281 -6.58103516 8.57113281 -6.08984375 7.3046875 C-3.25898669 0.07948748 -3.25898669 0.07948748 0 0 Z " fill="#283B50" transform="translate(126.5625,117.9375)"/>
<path d="M0 0 C1.31677734 0.00966797 1.31677734 0.00966797 2.66015625 0.01953125 C4.9375 0.1875 4.9375 0.1875 6.9375 1.1875 C6.9375 2.1775 6.9375 3.1675 6.9375 4.1875 C3.6375 4.1875 0.3375 4.1875 -3.0625 4.1875 C-3.0625 5.5075 -3.0625 6.8275 -3.0625 8.1875 C-2.43601562 8.46464844 -1.80953125 8.74179688 -1.1640625 9.02734375 C-0.34679687 9.38957031 0.47046875 9.75179687 1.3125 10.125 C2.12460938 10.48464844 2.93671875 10.84429687 3.7734375 11.21484375 C5.17433785 11.8444903 6.56375284 12.50062642 7.9375 13.1875 C8.328125 19.14453125 8.328125 19.14453125 7.9375 21.1875 C5.73450765 23.49909057 4.39047186 24.13298763 1.2109375 24.515625 C0.25445312 24.48984375 -0.70203125 24.4640625 -1.6875 24.4375 C-2.64914063 24.42203125 -3.61078125 24.4065625 -4.6015625 24.390625 C-7.0625 24.1875 -7.0625 24.1875 -9.0625 23.1875 C-9.0625 21.8675 -9.0625 20.5475 -9.0625 19.1875 C-8.546875 19.3525 -8.03125 19.5175 -7.5 19.6875 C-4.32886124 20.33799 -1.29031666 20.2495734 1.9375 20.1875 C2.2675 18.8675 2.5975 17.5475 2.9375 16.1875 C2.32261719 15.93355469 1.70773438 15.67960938 1.07421875 15.41796875 C0.26597656 15.07378906 -0.54226562 14.72960937 -1.375 14.375 C-2.17550781 14.03855469 -2.97601563 13.70210937 -3.80078125 13.35546875 C-6.08513333 12.17581198 -7.51385948 11.23553925 -9.0625 9.1875 C-8.9375 5.625 -8.9375 5.625 -8.0625 2.1875 C-4.79122414 0.00664943 -3.78873277 -0.06137859 0 0 Z " fill="#293B50" transform="translate(104.0625,117.8125)"/>
<path d="M0 0 C1.83203125 0.91796875 1.83203125 0.91796875 3.83203125 3.91796875 C3.83203125 7.91796875 3.83203125 7.91796875 1.78515625 10.09375 C0.893125 10.79886719 0.00109375 11.50398438 -0.91796875 12.23046875 C-1.7996875 12.94847656 -2.68140625 13.66648437 -3.58984375 14.40625 C-6.16796875 15.91796875 -6.16796875 15.91796875 -8.37109375 15.8359375 C-10.16796875 14.91796875 -10.16796875 14.91796875 -12.16796875 11.91796875 C-12.00842889 9.01670686 -11.18062241 7.93226508 -9.2421875 5.7421875 C-8.45457031 5.03707031 -7.66695313 4.33195312 -6.85546875 3.60546875 C-5.68564453 2.52845703 -5.68564453 2.52845703 -4.4921875 1.4296875 C-2.16796875 -0.08203125 -2.16796875 -0.08203125 0 0 Z " fill="#40ACE4" transform="translate(86.16796875,81.08203125)"/>
<path d="M0 0 C5.61 0 11.22 0 17 0 C17 1.65 17 3.3 17 5 C14.36 5 11.72 5 9 5 C9.33 5.66 9.66 6.32 10 7 C11.89533342 7.46523063 11.89533342 7.46523063 14.0625 7.625 C15.361875 7.74875 16.66125 7.8725 18 8 C18 8.66 18 9.32 18 10 C11.4 10 4.8 10 -2 10 C-2 9.34 -2 8.68 -2 8 C-1.04287109 7.92652344 -1.04287109 7.92652344 -0.06640625 7.8515625 C0.75988281 7.77679688 1.58617187 7.70203125 2.4375 7.625 C3.26121094 7.55539063 4.08492187 7.48578125 4.93359375 7.4140625 C5.61550781 7.27742187 6.29742187 7.14078125 7 7 C7.33 6.34 7.66 5.68 8 5 C5.36 5 2.72 5 0 5 C0 3.35 0 1.7 0 0 Z " fill="#F9FBFA" transform="translate(44,127)"/>
<path d="M0 0 C0.515625 0.2475 1.03125 0.495 1.5625 0.75 C1.8925 3.06 2.2225 5.37 2.5625 7.75 C-4.0625 11.75 -4.0625 11.75 -7.4375 11.75 C-9.20212683 8.66190305 -9.4375 7.51687864 -9.4375 3.75 C-3.0375 -0.31153846 -3.0375 -0.31153846 0 0 Z " fill="#44ADE5" transform="translate(126.4375,60.25)"/>
<path d="M0 0 C2.1519437 3.22791555 2.20086443 4.28400809 2 8 C-4.625 12 -4.625 12 -8 12 C-10.1519437 8.77208445 -10.20086443 7.71599191 -10 4 C-3.375 0 -3.375 0 0 0 Z " fill="#FAB82E" transform="translate(109,57)"/>
<path d="M0 0 C1.65 0 3.3 0 5 0 C5 7.92 5 15.84 5 24 C4.01 24 3.02 24 2 24 C2 18.06 2 12.12 2 6 C0.68 6 -0.64 6 -2 6 C-1.125 1.125 -1.125 1.125 0 0 Z " fill="#1F3349" transform="translate(159,118)"/>
<path d="M0 0 C5.61 0 11.22 0 17 0 C17 1.65 17 3.3 17 5 C11.39 5 5.78 5 0 5 C0 3.35 0 1.7 0 0 Z " fill="#F7FBFB" transform="translate(44,121)"/>
<path d="M0 0 C5.61 0 11.22 0 17 0 C17 1.65 17 3.3 17 5 C11.39 5 5.78 5 0 5 C0 3.35 0 1.7 0 0 Z " fill="#EAF3F5" transform="translate(44,115)"/>
<path d="M0 0 C0.53625 0.2475 1.0725 0.495 1.625 0.75 C1.955 2.4 2.285 4.05 2.625 5.75 C-3 9.75 -3 9.75 -6.375 9.75 C-7.035 7.77 -7.695 5.79 -8.375 3.75 C-2.95961538 -0.31153846 -2.95961538 -0.31153846 0 0 Z " fill="#3EABE3" transform="translate(93.375,50.25)"/>
<path d="M0 0 C3.3 0 6.6 0 10 0 C10 2.31 10 4.62 10 7 C6.7 7 3.4 7 0 7 C0 4.69 0 2.38 0 0 Z " fill="#FDB41B" transform="translate(130,81)"/>
<path d="M0 0 C2.43003677 0.9406594 3.72074209 1.49384505 5 3.8125 C5 7.13230681 3.17076942 8.6318879 1 11 C-0.65 10.67 -2.3 10.34 -4 10 C-4.8125 8.375 -4.8125 8.375 -5 6 C-3.53181864 3.75390165 -1.84147142 1.97621323 0 0 Z " fill="#FAB423" transform="translate(65,85)"/>
<path d="M0 0 C1.32 0.66 2.64 1.32 4 2 C4 6.68091299 3.00354129 7.62101604 0 11 C-1.32 10.67 -2.64 10.34 -4 10 C-4.8125 8.375 -4.8125 8.375 -5 6 C-3.53181864 3.75390165 -1.84147142 1.97621323 0 0 Z " fill="#43ACE3" transform="translate(69,68)"/>
<path d="M0 0 C5.61 0 11.22 0 17 0 C17 0.33 17 0.66 17 1 C14.36 1 11.72 1 9 1 C9.33 1.66 9.66 2.32 10 3 C11.89533342 3.46523063 11.89533342 3.46523063 14.0625 3.625 C15.361875 3.74875 16.66125 3.8725 18 4 C18 4.66 18 5.32 18 6 C11.4 6 4.8 6 -2 6 C-2 5.34 -2 4.68 -2 4 C-1.36191406 3.95101562 -0.72382812 3.90203125 -0.06640625 3.8515625 C0.75988281 3.77679688 1.58617187 3.70203125 2.4375 3.625 C3.26121094 3.55539063 4.08492187 3.48578125 4.93359375 3.4140625 C5.61550781 3.27742187 6.29742187 3.14078125 7 3 C7.33 2.34 7.66 1.68 8 1 C5.36 1 2.72 1 0 1 C0 0.67 0 0.34 0 0 Z " fill="#97C2DC" transform="translate(44,131)"/>
<path d="M0 0 C1.11375 0.3403125 1.11375 0.3403125 2.25 0.6875 C2.58 2.0075 2.91 3.3275 3.25 4.6875 C0.4375 6.75 0.4375 6.75 -2.75 8.6875 C-3.74 8.3575 -4.73 8.0275 -5.75 7.6875 C-6.08 6.0375 -6.41 4.3875 -6.75 2.6875 C-4.29511132 0.41445492 -3.41240272 -0.38777304 0 0 Z " fill="#4CB2E6" transform="translate(86.75,100.3125)"/>
<path d="M0 0 C0.66 0.99 1.32 1.98 2 3 C0.21348067 6.1279697 -1.58008227 9.25184315 -3.375 12.375 C-3.88289063 13.26445313 -4.39078125 14.15390625 -4.9140625 15.0703125 C-5.64882813 16.34648438 -5.64882813 16.34648438 -6.3984375 17.6484375 C-6.84880371 18.43395996 -7.29916992 19.21948242 -7.76318359 20.02880859 C-9 22 -9 22 -11 24 C-12 21 -12 21 -11.01196289 18.73168945 C-10.5039917 17.86761475 -9.99602051 17.00354004 -9.47265625 16.11328125 C-8.92802734 15.17548828 -8.38339844 14.23769531 -7.82226562 13.27148438 C-7.24154297 12.29501953 -6.66082031 11.31855469 -6.0625 10.3125 C-5.48564453 9.32443359 -4.90878906 8.33636719 -4.31445312 7.31835938 C-2.88529486 4.87343573 -1.44689143 2.43445726 0 0 Z " fill="#D9ECF3" transform="translate(44,96)"/>
<path d="M0 0 C0 0.66 0 1.32 0 2 C1.32 1.67 2.64 1.34 4 1 C1.63202009 3.61724095 -0.89600354 5.32861729 -4 7 C-4.66 7 -5.32 7 -6 7 C-6 6.34 -6 5.68 -6 5 C-6.78375 5.515625 -7.5675 6.03125 -8.375 6.5625 C-9.24125 7.036875 -10.1075 7.51125 -11 8 C-11.66 7.67 -12.32 7.34 -13 7 C-11.54261898 6.01941648 -10.08406325 5.04057868 -8.625 4.0625 C-7.81289062 3.51722656 -7.00078125 2.97195312 -6.1640625 2.41015625 C-2.46537396 0 -2.46537396 0 0 0 Z " fill="#9FD2EC" transform="translate(115,71)"/>
<path d="M0 0 C2.12046792 3.53411321 2.53199289 6.94393835 3 11 C0.69 11 -1.62 11 -4 11 C-3.5247412 9.35303396 -3.04468109 7.70745272 -2.5625 6.0625 C-2.29566406 5.14597656 -2.02882813 4.22945313 -1.75390625 3.28515625 C-1 1 -1 1 0 0 Z " fill="#DDE0E2" transform="translate(126,122)"/>
<path d="M0 0 C0.433125 0.45375 0.86625 0.9075 1.3125 1.375 C3.10798342 3.20024334 3.10798342 3.20024334 6 5 C4.8125 7 4.8125 7 3 9 C0.3125 9.25 0.3125 9.25 -2 9 C-2.6875 6.75 -2.6875 6.75 -3 4 C-1.5625 1.6875 -1.5625 1.6875 0 0 Z " fill="#C4E3F1" transform="translate(74,93)"/>
<path d="M0 0 C-0.33 1.65 -0.66 3.3 -1 5 C-2.98 5.33 -4.96 5.66 -7 6 C-7.33 4.35 -7.66 2.7 -8 1 C-4.93251126 -0.86240388 -3.40254489 -1.2151946 0 0 Z " fill="#FAB92A" transform="translate(115,86)"/>
<path d="M0 0 C0.99 0.33 1.98 0.66 3 1 C3 6.94 3 12.88 3 19 C2.67 19 2.34 19 2 19 C1.67 14.38 1.34 9.76 1 5 C0.34 5.66 -0.32 6.32 -1 7 C-1.66 6.67 -2.32 6.34 -3 6 C-2.625 3.5625 -2.625 3.5625 -2 1 C-1.34 0.67 -0.68 0.34 0 0 Z " fill="#435465" transform="translate(158,123)"/>
<path d="M0 0 C0.33 0.99 0.66 1.98 1 3 C1.99 2.01 2.98 1.02 4 0 C4.66 0.33 5.32 0.66 6 1 C-0.1971831 6.35211268 -0.1971831 6.35211268 -4 8 C-5.11375 8.556875 -5.11375 8.556875 -6.25 9.125 C-6.8275 9.41375 -7.405 9.7025 -8 10 C-6.34908222 5.70761377 -3.26245434 3.1206085 0 0 Z " fill="#9DD1EC" transform="translate(82,70)"/>
<path d="M0 0 C0 0.66 0 1.32 0 2 C0.99 2.33 1.98 2.66 3 3 C-0.65079826 4.61064629 -4.0507432 5.44894091 -8 6 C-7.67 5.38125 -7.34 4.7625 -7 4.125 C-5.85806765 2.08981656 -5.85806765 2.08981656 -6 0 C-3.50907189 -1.24546405 -2.58919267 -0.7767578 0 0 Z " fill="#B1D9E9" transform="translate(101,67)"/>
<path d="M0 0 C0 1.65 0 3.3 0 5 C-1.98 5.33 -3.96 5.66 -6 6 C-6.33 4.35 -6.66 2.7 -7 1 C-4 0 -4 0 0 0 Z " fill="#F9C044" transform="translate(137,42)"/>
<path d="M0 0 C1.98 0 3.96 0 6 0 C6 1.65 6 3.3 6 5 C4.02 5 2.04 5 0 5 C0 3.35 0 1.7 0 0 Z " fill="#F9C244" transform="translate(157,60)"/>
<path d="M0 0 C-0.33 0.99 -0.66 1.98 -1 3 C-1.66 3 -2.32 3 -3 3 C-3.33 3.99 -3.66 4.98 -4 6 C-5.98 6.33 -7.96 6.66 -10 7 C-3.18421053 0 -3.18421053 0 0 0 Z " fill="#AFD7ED" transform="translate(90,110)"/>
<path d="M0 0 C2.31 0 4.62 0 7 0 C7 1.32 7 2.64 7 4 C4.69 3.67 2.38 3.34 0 3 C0 2.01 0 1.02 0 0 Z " fill="#CEE3EE" transform="translate(45,121)"/>
<path d="M0 0 C0 1.32 0 2.64 0 4 C-0.99 4 -1.98 4 -3 4 C-3.33 3.34 -3.66 2.68 -4 2 C-5.32 2 -6.64 2 -8 2 C-8 1.34 -8 0.68 -8 0 C-4.94736336 -0.98120464 -3.05263664 -0.98120464 0 0 Z " fill="#ADD9EF" transform="translate(129,83)"/>
<path d="M0 0 C0.33 0.66 0.66 1.32 1 2 C1.66 2.33 2.32 2.66 3 3 C0.69 4.65 -1.62 6.3 -4 8 C-3.40138258 5.64828869 -2.73075648 3.3140622 -2 1 C-1.34 0.67 -0.68 0.34 0 0 Z " fill="#9CD2EC" transform="translate(83,58)"/>
<path d="M0 0 C3.3 0 6.6 0 10 0 C9.67 0.99 9.34 1.98 9 3 C8.01 3 7.02 3 6 3 C6 2.34 6 1.68 6 1 C4.35 1 2.7 1 1 1 C1 2.98 1 4.96 1 7 C0.67 7 0.34 7 0 7 C0 4.69 0 2.38 0 0 Z " fill="#F5C860" transform="translate(130,81)"/>
<path d="M0 0 C-0.33 0.99 -0.66 1.98 -1 3 C-3.64 3 -6.28 3 -9 3 C-6.38997624 -0.48003168 -4.1689578 -0.27793052 0 0 Z " fill="#1A76B5" transform="translate(52,132)"/>
<path d="M0 0 C0 1.32 0 2.64 0 4 C-0.99 4 -1.98 4 -3 4 C-4.6875 2 -4.6875 2 -6 0 C-3.50907189 -1.24546405 -2.58919267 -0.7767578 0 0 Z " fill="#F7C350" transform="translate(115,86)"/>
<path d="M0 0 C2.97 0.495 2.97 0.495 6 1 C6 1.66 6 2.32 6 3 C3.69 3 1.38 3 -1 3 C-0.67 2.01 -0.34 1.02 0 0 Z " fill="#C1DAE6" transform="translate(46,127)"/>
<path d="M0 0 C2.31 0 4.62 0 7 0 C7.33 0.99 7.66 1.98 8 3 C5.69 3 3.38 3 1 3 C0.67 2.01 0.34 1.02 0 0 Z " fill="#C4E1ED" transform="translate(44,115)"/>
<path d="M0 0 C0.66 0.33 1.32 0.66 2 1 C0.61918777 5.1424367 -1.59825558 6.32203099 -5 9 C-4.42647107 5.12867972 -2.51295648 2.91827204 0 0 Z " fill="#F7C960" transform="translate(65,85)"/>
</svg>
